<svg width="204" height="75" viewBox="0 0 204 75" fill="none" xmlns="http://www.w3.org/2000/svg">
<g clip-path="url(#clip0_3154_40479)">
<path fill-rule="evenodd" clip-rule="evenodd" d="M133.351 53.3909V14.0263C133.351 0.652653 147.302 -2.21682 157.264 1.59533V9.04353C150.417 6.23621 142.727 6.87848 142.727 15.6009H153.851V23.0801H142.727V53.2459L133.351 53.3909Z" fill="#FFBC16"/>
<path fill-rule="evenodd" clip-rule="evenodd" d="M177.517 9.7583H184.446L185.865 15.6008H194.48V23.0801H186.893V40.4938C186.893 43.9814 188.39 45.7286 191.386 45.7355H196.135V53.2044H186.883C180.652 53.2044 177.537 49.8585 177.537 43.125L177.517 9.7583Z" fill="#FFBC16"/>
<path d="M170.372 15.6011H160.996V53.2046H170.372V15.6011Z" fill="#FFBC16"/>
<path d="M170.372 1.98926H160.996V9.74823H170.372V1.98926Z" fill="#FFBC16"/>
<path fill-rule="evenodd" clip-rule="evenodd" d="M204 53.2251C199.811 59.8963 194.016 65.3914 187.153 69.1993C180.29 73.0071 172.583 75.0039 164.748 75.0039C156.914 75.0039 149.207 73.0071 142.344 69.1993C135.481 65.3914 129.685 59.8963 125.497 53.2251C135.171 62.2168 149.142 67.8625 164.738 67.8625C180.334 67.8625 194.305 62.2064 204 53.2251Z" fill="#FFBC16"/>
<path d="M1.15144 44.5441V39.3646C4.14028 40.5103 7.31997 41.066 10.5172 41.0013C13.149 41.0013 14.4752 40.1518 14.4752 38.4426C14.4752 36.7333 13.5808 36.1014 11.8125 36.1014H7.40211C2.46737 36.1429 0 33.6739 0 28.6947C0 23.5634 3.6051 20.9978 10.8153 20.9978C13.751 20.9777 16.6695 21.4503 19.4511 22.3963V27.5759C16.6529 26.4485 13.6643 25.8785 10.6508 25.8977C7.33357 25.8977 5.67495 26.7541 5.67495 28.4668C5.67495 30.0206 6.64134 30.7976 8.57411 30.7976H12.5013C17.909 30.7976 20.6128 33.2838 20.6128 38.2561C20.6128 43.3943 17.1859 45.9633 10.3321 45.9633C7.21494 46.0067 4.11233 45.5271 1.15144 44.5441ZM24.8896 45.7147V21.2361H29.6496L30.3589 24.3438C32.7282 22.4349 35.6444 21.3453 38.676 21.2361C41.7602 21.2361 43.8986 22.3445 45.1837 24.5925C48.2679 22.3445 51.1876 21.2361 53.912 21.2361C59.0455 21.2361 61.6088 24.3438 61.602 30.5593V45.7354H55.5158V30.3003C55.5158 27.5862 54.3746 26.2292 52.0923 26.2292C50.2624 26.2292 48.3604 27.2651 46.366 29.3991V45.7354H40.1976V30.3728C40.1976 27.607 39.077 26.2292 36.8152 26.2292C34.8687 26.2292 32.9497 27.2858 31.058 29.3991V45.7354L24.8896 45.7147ZM66.0124 38.08C66.0124 33.0524 69.5318 30.542 76.5707 30.5489C78.4744 30.5502 80.3739 30.727 82.2456 31.0773V29.4198C82.2456 27.234 80.1381 26.1256 75.923 26.1256C73.2422 26.1313 70.5762 26.5255 68.0069 27.2962V22.3963C70.5767 21.6289 73.2427 21.2381 75.923 21.2361C84.2504 21.2361 88.4141 23.926 88.4141 29.3059V45.7354H85.3298L82.6877 44.0054C80.6132 45.1465 78.2864 45.7415 75.923 45.7354C69.3639 45.7354 66.0844 43.1905 66.0844 38.1007L66.0124 38.08ZM82.2456 35.6974C80.3801 35.3589 78.4865 35.2028 76.5912 35.2313C73.6373 35.2313 72.1637 36.1636 72.1705 38.0282C72.1774 39.8929 73.4111 40.8286 75.8716 40.8355C78.1454 40.9032 80.3804 40.2312 82.2456 38.9191V35.6974ZM94.3563 45.7354V21.2361H99.106L99.8668 24.3438C100.735 23.4015 101.78 22.6416 102.941 22.1082C104.102 21.5749 105.356 21.2784 106.631 21.2361V26.2292C105.439 26.2522 104.266 26.5431 103.199 27.0808C102.132 27.6184 101.197 28.3892 100.463 29.3369V45.7354H94.3563ZM110.435 17.2686H114.969L115.905 21.2361H121.549V26.1256H116.583V37.3963C116.583 39.6857 117.611 40.8355 119.523 40.8355H121.58V45.7354H116.583C112.512 45.7354 110.473 43.5324 110.466 39.1263L110.435 17.2686Z" fill="white"/>
</g>
<defs>
<clipPath id="clip0_3154_40479">
<rect width="204" height="75" fill="white"/>
</clipPath>
</defs>
</svg>
